<?xml version="1.0" encoding="UTF-8"?>
<svg width="32px" height="32px" viewBox="0 0 32 32" version="1.1" xmlns="http://www.w3.org/2000/svg" xmlns:xlink="http://www.w3.org/1999/xlink">
    <!-- Generator: Sketch 58 (84663) - https://sketch.com -->
    <title>编组</title>
    <desc>Created with Sketch.</desc>
    <defs>
        <filter x="-4.8%" y="-19.8%" width="109.6%" height="144.4%" filterUnits="objectBoundingBox" id="filter-1">
            <feOffset dx="0" dy="2" in="SourceAlpha" result="shadowOffsetOuter1"></feOffset>
            <feGaussianBlur stdDeviation="2" in="shadowOffsetOuter1" result="shadowBlurOuter1"></feGaussianBlur>
            <feColorMatrix values="0 0 0 0 0   0 0 0 0 0   0 0 0 0 0  0 0 0 0.5 0" type="matrix" in="shadowBlurOuter1" result="shadowMatrixOuter1"></feColorMatrix>
            <feMerge>
                <feMergeNode in="shadowMatrixOuter1"></feMergeNode>
                <feMergeNode in="SourceGraphic"></feMergeNode>
            </feMerge>
        </filter>
    </defs>
    <g id="改版迭代备份" stroke="none" stroke-width="1" fill="none" fill-rule="evenodd">
        <g id="决策首页" transform="translate(-129.000000, -1311.000000)" fill="#999999" fill-rule="nonzero">
            <g id="导航栏" filter="url(#filter-1)" transform="translate(0.000000, 1305.000000)">
                <g id="编组" transform="translate(133.000000, 8.000000)">
                    <path d="M21.960102,0 L4.91735413,0 C3.79181041,0 2.87745613,0.951102204 2.87745613,2.12104208 L2.87745613,6.02645291 L2.07709615,6.02645291 C0.933553322,6.02645291 0.00119994,6.96072144 0.00119994,8.10781563 C0.00119994,9.25611222 0.933553322,10.1903808 2.07829609,10.1903808 L2.87745613,10.1903808 L2.87745613,13.8096192 L2.07709615,13.8096192 C0.932353382,13.8096192 0,14.7438878 0,15.8921844 C0,17.0392786 0.932353382,17.9735471 2.07709615,17.9735471 L2.87625619,17.9735471 L2.87625619,21.8789579 C2.87625619,23.0488978 3.79061047,24 4.91615419,24 L21.960102,24 C23.0844458,24 24,23.0488978 24,21.8789579 L24,2.12104208 C24,0.951102204 23.0844458,0 21.960102,0 Z M2.07709615,8.74509018 C1.72586061,8.74509018 1.44112794,8.45977265 1.44112794,8.10781563 C1.44112794,7.75585862 1.72586061,7.47054108 2.07709615,7.47054108 L4.73136343,7.47054108 C5.08259897,7.47054108 5.36733163,7.75585862 5.36733163,8.10781563 C5.36733163,8.45977265 5.08259897,8.74509018 4.73136343,8.74509018 L2.07829609,8.74509018 L2.07709615,8.74509018 Z M2.07709615,16.5282565 C1.72586061,16.5282565 1.44112794,16.242939 1.44112794,15.890982 C1.44112794,15.5390249 1.72586061,15.2537074 2.07709615,15.2537074 L4.73136343,15.2537074 C5.08259897,15.2537074 5.36733163,15.5390249 5.36733163,15.890982 C5.36733163,16.242939 5.08259897,16.5282565 4.73136343,16.5282565 L2.07829609,16.5282565 L2.07709615,16.5282565 Z M22.5564722,21.8789579 C22.5564722,22.2517034 22.2888856,22.5559118 21.9589021,22.5559118 L4.91735413,22.5559118 C4.58737063,22.5559118 4.31858407,22.2517034 4.31858407,21.8789579 L4.31858407,17.9735471 L4.73256337,17.9735471 C5.87850607,17.9735471 6.80965952,17.0392786 6.80965952,15.8921844 C6.80965952,14.7438878 5.87850607,13.8096192 4.73256337,13.8096192 L4.31858407,13.8096192 L4.31858407,10.1903808 L4.73256337,10.1903808 C5.87850607,10.1903808 6.80965952,9.25611222 6.80965952,8.10781563 C6.80965952,6.96072144 5.87850607,6.02645291 4.73256337,6.02645291 L4.31858407,6.02645291 L4.31858407,2.12104208 C4.31858407,1.74829659 4.58737063,1.44408818 4.91735413,1.44408818 L21.960102,1.44408818 C22.2900855,1.44408818 22.5576721,1.74829659 22.5576721,2.12104208 L22.5576721,21.8789579 L22.5564722,21.8789579 Z M17.2251387,14.3543086 C16.8327584,14.0440882 16.0767962,13.8288577 15.6436178,13.8288577 C15.6160192,13.8288577 15.5884206,13.8288577 15.5632218,13.8312625 C15.3712314,13.8420842 15.20084,13.8961924 15.0352482,13.9478958 C14.9191775,13.9902605 14.7982223,14.0177334 14.6752662,14.0296593 C14.5024749,13.9142285 14.0512974,13.4128257 13.5041248,12.4953908 C12.9569522,11.5755511 12.739763,10.9503006 12.7277636,10.7519038 C12.7013649,10.345491 12.6857657,10.1002004 13.0613469,9.73827655 L13.1021449,9.69739479 C13.4261287,9.38597194 13.9709015,8.86533066 14.0500975,8.02725451 C14.1412929,7.08697395 13.5785211,5.35791583 13.3337333,4.65811623 C13.1165442,4.04008016 12.5093745,3.67214429 11.7090145,3.67214429 C11.5830208,3.67214429 11.460627,3.68056112 11.3430328,3.6997996 C11.037832,3.74969442 10.7357481,3.8171405 10.4382781,3.90180361 C9.86470676,4.06773547 9.56232188,4.24448898 9.39313034,4.51262525 C8.64916754,5.69218437 8.40677966,7.3238477 8.69116544,9.23086172 C8.93835308,10.8901804 9.559922,12.6841683 10.4898755,14.4180361 C11.3478326,16.0172345 12.3857807,17.4084168 13.4873256,18.4400802 C14.7376631,19.6076152 16.0143993,20.2388778 17.1783411,20.2629259 L17.2047398,20.2629259 C17.8935053,20.2629259 18.5726714,19.6797595 18.8318584,19.4284569 C19.1582421,19.1122244 19.7066147,18.4833667 19.7126768,17.8160321 C19.7258137,16.4008016 17.6427179,14.6837675 17.2251387,14.3543086 L17.2251387,14.3543086 Z M17.1963402,18.8188377 C16.3947803,18.795992 15.4528274,18.3006012 14.4712764,17.3831663 C13.4957252,16.4717435 12.5333733,15.1755511 11.759412,13.7338677 C10.919454,12.1671343 10.3362832,10.4933868 10.1166942,9.01803607 C9.89350532,7.51743487 10.0434978,6.26693387 10.5486726,5.38677355 C10.7430628,5.30380762 11.2098395,5.18236473 11.5662217,5.12705411 C11.613087,5.11994016 11.6604147,5.11623246 11.7078146,5.11623246 C11.8494075,5.11623246 11.9442028,5.14388778 11.9826009,5.16432866 C12.3329834,6.16593186 12.660567,7.41763527 12.6149693,7.88897796 C12.5861707,8.19318637 12.3305835,8.43727455 12.1049948,8.65370741 L12.060597,8.69699399 C11.2038398,9.52304609 11.2566372,10.3503006 11.2878356,10.8456914 C11.3358332,11.5743487 11.9214039,12.6553106 12.2657867,13.2360721 C12.5417729,13.6977956 13.2497375,14.8172345 13.879706,15.2356713 C14.119694,15.3943888 14.3932803,15.4761523 14.6908655,15.4761523 C14.9956502,15.4761523 15.2680366,15.3895792 15.4684266,15.3258517 C15.5284236,15.3066132 15.6124194,15.2813627 15.6484176,15.2741483 C15.8224089,15.2765531 16.2255887,15.4112224 16.3323834,15.4893788 C16.6743663,15.7587174 17.1891405,16.2204409 17.6115194,16.7086172 C18.1178941,17.2941884 18.2630868,17.6561122 18.2714864,17.7895792 C18.2018899,18.0877756 17.4951252,18.7659319 17.1963402,18.8188377 L17.1963402,18.8188377 Z" id="形状"></path>
                </g>
            </g>
        </g>
    </g>
</svg>