<?xml version="1.0" encoding="UTF-8"?>
<svg width="30px" height="32px" viewBox="0 0 30 32" version="1.1" xmlns="http://www.w3.org/2000/svg" xmlns:xlink="http://www.w3.org/1999/xlink">
    <!-- Generator: Sketch 58 (84663) - https://sketch.com -->
    <title>编组 22</title>
    <desc>Created with Sketch.</desc>
    <defs>
        <filter x="-4.8%" y="-19.8%" width="109.6%" height="144.4%" filterUnits="objectBoundingBox" id="filter-1">
            <feOffset dx="0" dy="2" in="SourceAlpha" result="shadowOffsetOuter1"></feOffset>
            <feGaussianBlur stdDeviation="2" in="shadowOffsetOuter1" result="shadowBlurOuter1"></feGaussianBlur>
            <feColorMatrix values="0 0 0 0 0   0 0 0 0 0   0 0 0 0 0  0 0 0 0.5 0" type="matrix" in="shadowBlurOuter1" result="shadowMatrixOuter1"></feColorMatrix>
            <feMerge>
                <feMergeNode in="shadowMatrixOuter1"></feMergeNode>
                <feMergeNode in="SourceGraphic"></feMergeNode>
            </feMerge>
        </filter>
    </defs>
    <g id="改版迭代备份" stroke="none" stroke-width="1" fill="none" fill-rule="evenodd">
        <g id="应用中心" transform="translate(-218.000000, -1082.000000)" fill="#B6282C">
            <g id="导航栏" filter="url(#filter-1)" transform="translate(0.000000, 1076.000000)">
                <g id="编组-22" transform="translate(222.000000, 8.000000)">
                    <g id="应用" fill-rule="nonzero">
                        <path d="M3.00314931,15.5117198 C2.66085903,15.5112154 2.33013307,15.6414119 2.07291468,15.8779243 C1.80424456,16.1424407 1.65352133,16.5126285 1.65726403,16.8987942 L1.65726403,20.7715328 C1.64313527,21.0739668 1.71364602,21.3741392 1.86013817,21.6351913 C2.10640731,22.0220729 2.51496939,22.2617159 2.95862258,22.2795528 L6.79507348,22.2795528 C7.24268461,22.2832221 7.66070143,22.0457511 7.90181361,21.6507825 C8.05644178,21.3929165 8.13079097,21.0911253 8.11459012,20.7871004 L8.11459012,16.9005187 C8.11619673,16.5171926 7.96847675,16.1497559 7.70554854,15.8830741 C7.44856145,15.6390601 7.11392206,15.5041808 6.76703562,15.5047961 L3.01140503,15.5047961 M3.01140503,13.7774339 L6.7604491,13.7774339 C7.51746627,13.7775633 8.24725917,14.0731865 8.80732618,14.6065792 C9.41250911,15.1975544 9.7560222,16.0253003 9.7557189,16.8918726 L9.7557189,20.7870767 C9.77371663,21.4582879 9.5864851,22.1179663 9.22133023,22.6699044 C8.66950911,23.502799 7.76306105,23.9997131 6.79507348,23.9999764 L2.90913335,23.9999764 C1.9397069,23.9713279 1.04224859,23.4573707 0.496094799,22.6180754 C0.15594915,22.070749 -0.0166749294,21.4277769 0.00127043523,20.7750054 L0.00127043523,16.8935735 C0.00157496998,16.0091881 0.361474471,15.1667846 0.990896617,14.5771921 C1.54782784,14.0663948 2.26286071,13.7846633 3.00317188,13.7843318 L3.01140503,13.7774339 Z M3.00314931,2.59966985 C2.66067255,2.59980039 2.32997242,2.73059981 2.07291468,2.9675988 C1.80424456,3.2321152 1.65352133,3.60230303 1.65726403,3.98846874 L1.65726403,7.86123094 C1.64313527,8.16366499 1.71364602,8.46383738 1.86013817,8.7248895 C2.1056596,9.11285817 2.51451212,9.35331341 2.95862258,9.37093256 L6.79507348,9.37093256 C7.01890131,9.36668295 7.23865856,9.30752196 7.43669628,9.19820085 C7.62224513,9.08365171 7.78112513,8.92729046 7.90181361,8.74045709 C8.05624039,8.48250026 8.13057278,8.18077726 8.11459012,7.8767749 L8.11459012,3.98846874 C8.11611818,3.60567676 7.96837412,3.23882007 7.70554854,2.97279586 C7.44915375,2.72756844 7.11426344,2.59196419 6.76703562,2.59276833 L3.01140503,2.59276833 M3.01140503,0.865407535 L6.7604491,0.865407535 C7.51765626,0.866174608 8.24742166,1.16240149 8.80732618,1.69627731 C9.41284114,2.28700677 9.75642031,3.11491196 9.7557189,3.98157082 L9.7557189,7.8767749 C9.78960576,9.06104784 9.18173702,10.1637439 8.18550809,10.7251946 C7.75601192,10.9599635 7.2795302,11.0848655 6.79507348,11.0896745 L2.90913335,11.0896745 C1.9397069,11.0610261 1.04224859,10.5470689 0.496094799,9.70777357 C0.15594472,9.16044052 -0.0166795503,8.51745944 0.00127043523,7.86467989 L0.00127043523,3.98329529 C0.00110003452,3.09830059 0.361040915,2.25516446 0.990896617,1.66516576 C1.54821777,1.15505074 2.26299693,0.873419273 3.00317188,0.872305459 L3.01140503,0.865407535 Z M17.9647012,13.7843554 L17.9547988,15.5117198 L14.2057773,15.5117198 C13.8635963,15.5118457 13.5330754,15.6419615 13.2755427,15.8779243 C13.0074797,16.1427417 12.8573697,16.5128898 12.8615386,16.8987942 L12.8615386,20.7715328 C12.8474099,21.0739668 12.9179206,21.3741392 13.0644128,21.6351913 C13.3097759,22.0222356 13.7179593,22.2620159 14.1612506,22.2795441 L17.9977015,22.2795441 C18.4456529,22.2828212 18.8639838,22.0455201 19.1060657,21.6507825 C19.2604924,21.3928257 19.3348248,21.0911027 19.3188422,20.7871004 L19.3188422,16.9004951 C19.3202455,16.5172253 19.1725567,16.1498832 18.9098006,15.8830977 C18.6532432,15.6394809 18.3192708,15.5046221 17.9729569,15.5047982 L17.9729569,13.7774575 M14.2140105,13.7774575 L17.9729569,13.7774575 C18.7299741,13.777587 19.459767,14.0732102 20.019834,14.6066028 C20.6250169,15.197578 20.96853,16.025324 20.9682267,16.8918963 L20.9682267,20.7871004 C20.9862178,21.4583141 20.7989783,22.1179928 20.4338155,22.669928 C19.8819989,23.5028158 18.9755609,23.999729 18.0075813,24 L14.1216412,24 C13.1520696,23.9719133 12.2543831,23.4578254 11.7086026,22.6180991 C11.3684569,22.0707727 11.1958328,21.4278005 11.2137782,20.775029 L11.2137782,16.8935735 C11.2140827,16.0091881 11.5739822,15.1667846 12.2034044,14.5771921 C12.7573727,14.0680654 13.4687257,13.7863946 14.2057547,13.7843318 L14.2140105,13.7774575 Z M16.1355405,1.74635819 C15.7789741,1.74758684 15.4369355,1.8944642 15.1821853,2.15574557 L14.8523174,2.50120898 L14.6527366,2.71022572 L12.6487396,4.81416507 L12.6157618,4.84870196 L12.493708,4.97825074 C12.3459513,5.13860239 12.233371,5.33077795 12.1638176,5.54137693 L12.1638176,5.55002296 C12.0461346,5.93906215 12.0986628,6.36268311 12.3073227,6.70733961 C12.4539204,6.90493541 12.6149392,7.09031869 12.7889289,7.26181975 L12.8483205,7.32229475 L13.8824734,8.40878952 L14.888611,9.46594447 L14.9430401,9.52467135 C15.1020116,9.70833378 15.2795323,9.87340014 15.4724889,10.0169756 C15.6673717,10.1329629 15.8866995,10.196471 16.1107959,10.2018024 L16.1289314,10.2018024 C16.5032747,10.1953819 16.8596152,10.0324222 17.1185576,9.74923202 L17.8607828,8.96846673 L19.7361395,6.99924961 C19.8252794,6.90772111 19.905405,6.80703715 19.9753072,6.69871721 C20.0880767,6.50190218 20.1547671,6.27992997 20.1699257,6.05094965 C20.1937846,5.64966808 20.0506267,5.25721364 19.777373,4.97480179 C19.4000816,4.57420849 19.0207189,4.17576058 18.6393017,3.77947565 L18.1214019,3.23709051 L17.2224759,2.29221591 C17.0241017,2.05507077 16.7699296,1.87641432 16.4852131,1.77399713 C16.3778201,1.74264092 16.2668104,1.72694907 16.1553226,1.72735719 M16.1553226,4.31522586e-07 C16.4115615,-0.000142627939 16.6666881,0.0352855094 16.9140368,0.105359652 C17.4783508,0.283410932 17.9872729,0.615490857 18.388585,1.06752632 L19.287511,2.01237731 C19.8417044,2.59449642 20.4008377,3.17316656 20.9517378,3.7587346 C21.9395132,4.80205191 22.1014209,6.42446985 21.3409747,7.65913576 C21.2111116,7.85956741 21.063086,8.04640944 20.8989553,8.21706488 L19.026892,10.1828094 L18.2846892,10.9635511 C17.7202993,11.5695054 16.9487139,11.9151084 16.1404804,11.9239697 L16.1008935,11.9239697 C15.5928946,11.915351 15.0952541,11.772137 14.6543832,11.5076843 C14.3109956,11.2765034 13.9986943,10.9982344 13.7257952,10.6802871 L12.7196575,9.62315583 L11.6855046,8.53661383 C11.4206598,8.27700247 11.177836,7.9938013 10.9597682,7.69020007 C10.4433781,6.88572935 10.3164132,5.87445971 10.6166822,4.95753334 C10.767411,4.50846008 11.010037,4.09931375 11.3275763,3.7587346 L11.4925328,3.5860029 L13.493214,1.48378802 L14.0358809,0.915488386 C14.5981151,0.342549564 15.3510703,0.0210592493 16.1355405,0.0189937988 L16.1553226,4.31522586e-07 Z" id="形状"></path>
                    </g>
                    <rect id="矩形" x="1" y="2" width="8" height="8"></rect>
                    <rect id="矩形" x="1" y="15" width="8" height="8" rx="1"></rect>
                    <rect id="矩形" x="12" y="15" width="8" height="8" rx="1"></rect>
                </g>
            </g>
        </g>
    </g>
</svg>