<?xml version="1.0" encoding="UTF-8"?>
<svg width="32px" height="32px" viewBox="0 0 32 32" version="1.1" xmlns="http://www.w3.org/2000/svg" xmlns:xlink="http://www.w3.org/1999/xlink">
    <!-- Generator: Sketch 58 (84663) - https://sketch.com -->
    <title>形状</title>
    <desc>Created with Sketch.</desc>
    <defs>
        <filter x="-4.8%" y="-19.8%" width="109.6%" height="144.4%" filterUnits="objectBoundingBox" id="filter-1">
            <feOffset dx="0" dy="2" in="SourceAlpha" result="shadowOffsetOuter1"></feOffset>
            <feGaussianBlur stdDeviation="2" in="shadowOffsetOuter1" result="shadowBlurOuter1"></feGaussianBlur>
            <feColorMatrix values="0 0 0 0 0   0 0 0 0 0   0 0 0 0 0  0 0 0 0.5 0" type="matrix" in="shadowBlurOuter1" result="shadowMatrixOuter1"></feColorMatrix>
            <feMerge>
                <feMergeNode in="shadowMatrixOuter1"></feMergeNode>
                <feMergeNode in="SourceGraphic"></feMergeNode>
            </feMerge>
        </filter>
    </defs>
    <g id="改版迭代备份" stroke="none" stroke-width="1" fill="none" fill-rule="evenodd">
        <g id="通讯录" transform="translate(-41.000000, -738.000000)" fill="#999999" fill-rule="nonzero">
            <g id="导航栏" filter="url(#filter-1)" transform="translate(0.000000, 732.000000)">
                <path d="M63.6466852,31.9265466 L59.01304,31.9265466 C58.5272546,31.9265466 58.1535735,31.5528655 58.1535735,31.0670802 L58.1535735,23.6681951 L55.500438,23.6681951 L55.500438,31.0670802 C55.500438,31.5528655 55.1267569,31.9265466 54.6409715,31.9265466 L50.0820625,31.9265466 C48.6620745,31.9265466 47.5036631,30.7681353 47.5036631,29.3481473 L47.5036631,21.7997897 L47.0178778,21.7997897 C45.8968346,21.7997897 45,20.9029552 45,19.781912 C45,19.2587585 45.1868405,18.7729731 45.5605216,18.399292 L54.2672904,9.16936969 C55.6872785,7.67464544 58.0414692,7.5999092 59.5735616,9.01989725 C59.6109297,9.09463346 59.6482978,9.13200156 59.723034,9.16936969 L68.4298029,18.399292 C69.2145331,19.1840223 69.177165,20.4545379 68.3924347,21.2392681 C68.0187537,21.6129492 67.4956002,21.7997897 66.9724467,21.7997897 L66.2250846,21.7997897 L66.2250846,29.3481473 C66.2250846,30.7681353 65.0666733,31.9265466 63.6466852,31.9265466 L63.6466852,31.9265466 Z M59.9098745,30.2076137 L63.6466852,30.2076137 C64.1324706,30.2076137 64.5435198,29.7965645 64.5435198,29.3107792 L64.5435198,20.9403233 C64.5435198,20.4545379 64.9172008,20.0808568 65.4029862,20.0808568 L67.0098148,20.0808568 C67.1219191,20.0808568 67.2340234,20.0061206 67.2713915,19.8940163 C67.3087596,19.781912 67.3087596,19.6698076 67.1966553,19.5577033 L58.4525184,10.3651491 C57.6677881,9.54305074 56.3972725,9.50568263 55.5751742,10.2904129 C55.5378061,10.2904129 55.500438,10.327781 55.500438,10.3651491 L46.7936691,19.5577033 C46.6815648,19.6698076 46.6815648,19.8566482 46.7936691,19.9687525 C46.8684053,20.0434887 46.9431415,20.0434887 47.0178778,20.0434887 L48.4004977,20.0434887 C48.8862831,20.0434887 49.2599642,20.4171698 49.2599642,20.9029552 L49.2599642,29.3107792 C49.2599642,29.7965645 49.6710133,30.2076137 50.1567987,30.2076137 L53.8562413,30.2076137 L53.8562413,23.6681951 C53.8562413,22.6966243 54.6409715,21.9492621 55.5751742,21.9492621 L58.2283097,21.9492621 C59.1998805,21.9492621 59.9472426,22.7339924 59.9472426,23.6681951 L59.9098745,30.2076137 Z" id="形状"></path>
            </g>
        </g>
    </g>
</svg>