<?xml version="1.0" encoding="UTF-8"?>
<svg width="32px" height="32px" viewBox="0 0 32 32" version="1.1" xmlns="http://www.w3.org/2000/svg" xmlns:xlink="http://www.w3.org/1999/xlink">
    <!-- Generator: Sketch 58 (84663) - https://sketch.com -->
    <title>编组 7</title>
    <desc>Created with Sketch.</desc>
    <defs>
        <filter x="-4.8%" y="-19.8%" width="109.6%" height="144.4%" filterUnits="objectBoundingBox" id="filter-1">
            <feOffset dx="0" dy="2" in="SourceAlpha" result="shadowOffsetOuter1"></feOffset>
            <feGaussianBlur stdDeviation="2" in="shadowOffsetOuter1" result="shadowBlurOuter1"></feGaussianBlur>
            <feColorMatrix values="0 0 0 0 0   0 0 0 0 0   0 0 0 0 0  0 0 0 0.5 0" type="matrix" in="shadowBlurOuter1" result="shadowMatrixOuter1"></feColorMatrix>
            <feMerge>
                <feMergeNode in="shadowMatrixOuter1"></feMergeNode>
                <feMergeNode in="SourceGraphic"></feMergeNode>
            </feMerge>
        </filter>
    </defs>
    <g id="改版迭代备份" stroke="none" stroke-width="1" fill="none" fill-rule="evenodd">
        <g id="决策首页-切换系统" transform="translate(-41.000000, -1311.000000)" fill="#B6282C">
            <g id="导航栏" filter="url(#filter-1)" transform="translate(0.000000, 1305.000000)">
                <g id="编组-7" transform="translate(45.000000, 8.000000)">
                    <path d="M18.6466852,23.9265466 L14.01304,23.9265466 C13.5272546,23.9265466 13.1535735,23.5528655 13.1535735,23.0670802 L13.1535735,15.6681951 L10.500438,15.6681951 L10.500438,23.0670802 C10.500438,23.5528655 10.1267569,23.9265466 9.6409715,23.9265466 L5.08206251,23.9265466 C3.66207446,23.9265466 2.50366315,22.7681353 2.50366315,21.3481473 L2.50366315,13.7997897 L2.01787777,13.7997897 C0.896834557,13.7997897 0,12.9029552 0,11.781912 C0,11.2587585 0.186840523,10.7729731 0.560521593,10.399292 L9.26729043,1.16936969 C10.6872785,-0.325354563 13.0414692,-0.400090795 14.5735616,1.01989725 C14.6109297,1.09463346 14.6482978,1.13200156 14.723034,1.16936969 L23.4298029,10.399292 C24.2145331,11.1840223 24.177165,12.4545379 23.3924347,13.2392681 C23.0187537,13.6129492 22.4956002,13.7997897 21.9724467,13.7997897 L21.2250846,13.7997897 L21.2250846,21.3481473 C21.2250846,22.7681353 20.0666733,23.9265466 18.6466852,23.9265466 L18.6466852,23.9265466 Z M14.9098745,22.2076137 L18.6466852,22.2076137 C19.1324706,22.2076137 19.5435198,21.7965645 19.5435198,21.3107792 L19.5435198,12.9403233 C19.5435198,12.4545379 19.9172008,12.0808568 20.4029862,12.0808568 L22.0098148,12.0808568 C22.1219191,12.0808568 22.2340234,12.0061206 22.2713915,11.8940163 C22.3087596,11.781912 22.3087596,11.6698076 22.1966553,11.5577033 L13.4525184,2.36514909 C12.6677881,1.54305074 11.3972725,1.50568263 10.5751742,2.29041288 C10.5378061,2.29041288 10.500438,2.32778098 10.500438,2.36514909 L1.79366911,11.5577033 C1.6815648,11.6698076 1.6815648,11.8566482 1.79366911,11.9687525 C1.86840532,12.0434887 1.94314153,12.0434887 2.01787777,12.0434887 L3.40049771,12.0434887 C3.88628309,12.0434887 4.25996416,12.4171698 4.25996416,12.9029552 L4.25996416,21.3107792 C4.25996416,21.7965645 4.67101333,22.2076137 5.15679872,22.2076137 L8.85624126,22.2076137 L8.85624126,15.6681951 C8.85624126,14.6966243 9.6409715,13.9492621 10.5751742,13.9492621 L13.2283097,13.9492621 C14.1998805,13.9492621 14.9472426,14.7339924 14.9472426,15.6681951 L14.9098745,22.2076137 Z" id="形状" fill-rule="nonzero"></path>
                    <polygon id="路径-5" points="0.931951238 11.9660505 10.3403957 1.36226754 13.7977534 1.36226754 23.1538495 11.4849862 22.7474478 12.5287401 20.2458058 12.5287401 20.2458058 21.7439839 19.2224844 22.828305 13.7977534 22.828305 13.7977534 15.6891632 9.62704249 15.6891632 9.62704249 22.828305 3.82599843 22.828305 3.82599843 12.5287401 0.931951238 12.5287401"></polygon>
                </g>
            </g>
        </g>
    </g>
</svg>