<?xml version="1.0" encoding="UTF-8"?>
<svg width="32px" height="32px" viewBox="0 0 32 32" version="1.1" xmlns="http://www.w3.org/2000/svg" xmlns:xlink="http://www.w3.org/1999/xlink">
    <!-- Generator: Sketch 58 (84663) - https://sketch.com -->
    <title>项目</title>
    <desc>Created with Sketch.</desc>
    <defs>
        <filter x="-4.8%" y="-19.8%" width="109.6%" height="144.4%" filterUnits="objectBoundingBox" id="filter-1">
            <feOffset dx="0" dy="2" in="SourceAlpha" result="shadowOffsetOuter1"></feOffset>
            <feGaussianBlur stdDeviation="2" in="shadowOffsetOuter1" result="shadowBlurOuter1"></feGaussianBlur>
            <feColorMatrix values="0 0 0 0 0   0 0 0 0 0   0 0 0 0 0  0 0 0 0.5 0" type="matrix" in="shadowBlurOuter1" result="shadowMatrixOuter1"></feColorMatrix>
            <feMerge>
                <feMergeNode in="shadowMatrixOuter1"></feMergeNode>
                <feMergeNode in="SourceGraphic"></feMergeNode>
            </feMerge>
        </filter>
    </defs>
    <g id="改版迭代备份" stroke="none" stroke-width="1" fill="none" fill-rule="evenodd">
        <g id="项目" transform="translate(-127.000000, -737.000000)" fill="#B6282C">
            <g id="导航栏" filter="url(#filter-1)" transform="translate(-2.000000, 731.000000)">
                <g id="项目" transform="translate(133.000000, 8.000000)">
                    <path d="M12.0020537,20 L2.101162,15.4776262 C1.67829097,15.3567452 1.15193252,15.0580978 0.481048511,14.677678 C0.190731893,14.5275054 0.00618832087,14.2310796 0,13.9052319 C-0.00588319472,13.5793842 0.167556919,13.2763764 0.45211438,13.1156339 C0.73667184,12.9548915 1.08670732,12.9621953 1.36426017,13.1346668 C1.6604483,13.3017671 2.01551723,13.4795334 2.29207843,13.6110804 L12.0020537,18.0463487 L21.257041,13.8208446 L22.0670978,13.4173152 L22.6862381,13.1115572 C22.9729069,12.9583953 23.3205265,12.9728238 23.5934152,13.149211 C23.8663038,13.3255982 24.0212023,13.6359827 23.9976512,13.9592162 C23.9741001,14.2824498 23.7758329,14.5672924 23.4802364,14.7025653 L22.8628804,15.0083232 C22.5693336,15.1570234 22.2737113,15.3016208 21.9761002,15.4420729 L21.9761002,15.4438506 L12.0020537,20 Z" id="路径" fill-rule="nonzero"></path>
                    <path d="M11.9872836,24 L2.05455242,19.4985353 C1.73120272,19.3925769 1.2470714,19.1612345 0.452095598,18.7126774 C0.0229089698,18.4712857 -0.12705848,17.9316651 0.117133921,17.5074009 C0.361326321,17.0831368 0.907207882,16.9348894 1.33639453,17.176281 C1.64366606,17.3493464 2.01525026,17.5312416 2.29751132,17.6636895 L11.9872836,22.0574299 L21.2536643,17.8579465 L22.0647183,17.4570707 L22.6846208,17.1533234 C22.9716425,17.0011687 23.3196901,17.0155023 23.5929146,17.1907296 C23.8661392,17.3659569 24.0212284,17.6743003 23.9976483,17.9954082 C23.9740682,18.3165162 23.7755569,18.5994857 23.4795965,18.7338691 L22.8614805,19.0393824 C22.5675724,19.1871046 22.2715861,19.3307512 21.9736087,19.4702797 L21.9736087,19.4720457 L11.9872836,24 Z M11.969419,13.4889298 C11.447772,13.4889298 10.9886511,13.3088006 10.5706189,13.1145436 L1.17382644,8.96274147 C0.526754512,8.63064618 0.114925759,7.97561979 0.100162517,7.25504575 C0.0680062038,6.47801771 0.434230988,5.75043692 1.05591991,5.35662496 L10.5348897,0.431326781 C11.7389654,-0.162040086 12.4928525,-0.132018562 13.4950579,0.452518448 L22.8704129,5.31777358 C23.5224717,5.67096813 23.9029881,6.39678297 23.8761912,7.22325823 C23.8493943,8.00911612 23.4492267,8.67488789 22.8311107,8.95744354 L13.4057348,13.1216074 C12.8876607,13.34412 12.4517639,13.4889298 11.969419,13.4889298 L11.969419,13.4889298 Z M12.0444504,1.78229599 C11.8783094,1.78229599 11.6567881,1.8529349 11.3477301,2.00480857 L1.95272405,6.88419146 C1.90235853,6.97609955 1.87885358,7.08004725 1.88483849,7.18440684 C1.88841143,7.28859925 1.92414067,7.36100413 1.95629699,7.37689787 L11.3137873,11.5110402 C11.9962159,11.8253834 11.9997889,11.8006598 12.6857904,11.5057423 L22.0897288,7.35040828 C22.1183122,7.28506727 22.1058069,6.95306439 22.0164838,6.87006367 L12.6268372,1.99597869 C12.2945552,1.80348766 12.1427059,1.78229599 12.0444504,1.78229599 L12.0444504,1.78229599 Z" id="形状" fill-rule="nonzero"></path>
                    <polygon id="路径-6" points="0.95670056 7.19940643 11.9878623 0.96945728 23.1412821 6.75964929 23.1412821 7.52263184 12.0489913 12.6850522"></polygon>
                </g>
            </g>
        </g>
    </g>
</svg>